<?xml version="1.0" encoding="utf-8"?>
<!-- Generator: Adobe Illustrator 18.1.0, SVG Export Plug-In . SVG Version: 6.00 Build 0)  -->
<svg version="1.1" id="Calque_1" xmlns="http://www.w3.org/2000/svg" xmlns:xlink="http://www.w3.org/1999/xlink" x="0px" y="0px"
	 viewBox="0 0 300 83.8" enable-background="new 0 0 300 83.8" xml:space="preserve">
<g>
	<g>
		<path fill="#c2d67f" d="M34.6,64.8h6.2v7.7H19.7v-7.7h6.2v-34h-6.2v-7.7h21.1v7.7h-6.2V64.8z"/>
		<path fill="#c2d67f" d="M91.4,72.5H72v-7.7h5.4V54.1c0-6-3.1-9.4-8.4-9.4c-3,0-6.2,1.7-8.9,5v15.1h5.6v7.7H46.3v-7.7h5.4v-19h-5.4
			v-7.7h13.8V41c2.9-2.5,6.5-3.9,10.6-3.9c9.1,0,15.1,6.5,15.1,16.5v11.3h5.5V72.5z"/>
		<path fill="#c2d67f" d="M135.8,72.5H122v-2.5c-2.8,2.1-6.4,3.3-10.5,3.3c-9.6,0-17.3-8-17.3-18c0-10,7.7-17.9,17.3-17.9
			c4.1,0,7.7,1.2,10.5,3.2V28.7h-5.5V21h13.9v43.9h5.5V72.5z M122,62.1V48.9c-3-3.2-6-4.3-9.3-4.3c-5.9,0-10.2,5-10.2,10.7
			c0,5.7,4.3,10.8,10.2,10.8C115.9,66.1,119,65,122,62.1z"/>
		<path fill="#c2d67f" d="M175.4,64.8h5.5v7.7H167v-2.4c-2.8,2-6.4,3.2-10.5,3.2c-9.6,0-17.3-8-17.3-17.9c0-10,7.7-18,17.3-18
			c4.1,0,7.7,1.2,10.5,3.2v-2.4h13.9v7.7h-5.5V64.8z M167,62.1V48.6c-3-2.9-6-4-9.3-4c-5.9,0-10.2,5-10.2,10.8
			c0,5.7,4.3,10.7,10.2,10.7C161,66.1,164,65,167,62.1z"/>
		<path fill="#c2d67f" d="M238.1,45.9l-10.5,26.7h-7.3l-7.1-21l-7.2,21h-7.2l-10.5-26.7h-3.8v-7.7h17v7.7h-4.7l5.5,14.9l7.8-22.6
			h5.9l7.9,22.7l5.6-15h-4.7v-7.7h17v7.7H238.1z"/>
		<path fill="#c2d67f" d="M281.3,55.4c0,10.5-8.2,18.2-18.6,18.2c-10.5,0-18.6-7.8-18.6-18.2c0-10.4,8.1-18,18.6-18
			C273.1,37.4,281.3,45,281.3,55.4z M272.9,55.4c0-5.8-4.4-10.4-10.2-10.4c-6,0-10.2,4.6-10.2,10.4c0,5.9,4.3,10.6,10.2,10.6
			C268.6,66,272.9,61.3,272.9,55.4z"/>
	</g>
	<g>
		<path fill="#c2d67f" d="M158.9,24.1c0,5.5-4.3,9.6-9.8,9.6c-5.5,0-9.8-4.1-9.8-9.6c0-5.5,4.3-9.5,9.8-9.5
			C154.6,14.6,158.9,18.7,158.9,24.1z M154.6,24.1c0-3.1-2.3-5.5-5.3-5.5c-3.1,0-5.4,2.4-5.4,5.5c0,3.1,2.3,5.6,5.4,5.6
			C152.3,29.7,154.6,27.2,154.6,24.1z"/>
	</g>
	<g>
		<path fill="#c2d67f" d="M176.2,21c0,3.7-2.9,6.5-6.6,6.5c-3.7,0-6.6-2.8-6.6-6.5c0-3.7,2.9-6.4,6.6-6.4
			C173.3,14.6,176.2,17.3,176.2,21z M173.2,21c0-2.1-1.5-3.7-3.6-3.7c-2.1,0-3.6,1.6-3.6,3.7c0,2.1,1.5,3.8,3.6,3.8
			C171.7,24.8,173.2,23.1,173.2,21z"/>
	</g>
	<g>
		<path fill="#c2d67f" d="M162.3,10.2c0,2.5-2,4.4-4.5,4.4c-2.6,0-4.5-1.9-4.5-4.4c0-2.5,2-4.4,4.5-4.4
			C160.3,5.8,162.3,7.7,162.3,10.2z M160.3,10.2c0-1.4-1.1-2.5-2.5-2.5c-1.5,0-2.5,1.1-2.5,2.5c0,1.4,1,2.6,2.5,2.6
			C159.2,12.8,160.3,11.6,160.3,10.2z"/>
	</g>
</g>
</svg>
