<?xml version="1.0" encoding="utf-8"?>
<!-- Generator: Adobe Illustrator 18.0.0, SVG Export Plug-In . SVG Version: 6.00 Build 0)  -->
<!DOCTYPE svg PUBLIC "-//W3C//DTD SVG 1.1//EN" "http://www.w3.org/Graphics/SVG/1.1/DTD/svg11.dtd">
<svg version="1.1" id="Calque_1" xmlns="http://www.w3.org/2000/svg" xmlns:xlink="http://www.w3.org/1999/xlink" x="0px" y="0px"
	 viewBox="0 0 496.1 841.9" enable-background="new 0 0 496.1 841.9" xml:space="preserve">
<polygon fill-rule="evenodd" clip-rule="evenodd" fill="#393738" points="146.5,682.3 50,681.9 57.4,703.9 131.2,716 "/>
<polygon fill-rule="evenodd" clip-rule="evenodd" fill="#D0D0D2" points="101.7,751.7 82.1,747.3 74,824.3 82.4,836.2 90.8,829.5 
	"/>
<polygon fill-rule="evenodd" clip-rule="evenodd" fill="#A6A7AA" points="91.9,750.6 82.1,747.3 73.7,824.3 83,836.5 "/>
<path fill-rule="evenodd" clip-rule="evenodd" fill="#616163" d="M68,727.2c3,19.7-12.2,21.2,35,26.6c10.8,1.2,8.7-8.7,9.9-19.1
	C94.9,732.7,84.5,734,68,727.2z"/>
<path fill-rule="evenodd" clip-rule="evenodd" fill="#393738" d="M68,727.2c3.6,14.6-11.6,15.3,35.7,20.6c10.8,1.2,8.5-6.2,9.3-13.8
	C95,732,84.7,732.7,68,727.2z"/>
<path fill-rule="evenodd" clip-rule="evenodd" fill="#A45A3D" d="M154.4,164.6c-11.5-34.1-40.1-30.9-62.4-1.4
	c-12.3,16.3-17.7,90.7,12.7,89c27.3-1.5,36.2-12.1,47.2-36.6C158.4,201.2,158.1,180.2,154.4,164.6z"/>
<g>
	<defs>
		<path id="SVGID_1_" d="M115.5,520.1c6.4,45.1,25.6,104,41.3,146.5c0.8,3.2,42.5-16,42.9-19.7c0.4-3.4-44.4-116-47.4-125.6
			C143.5,493.7,142.9,512.1,115.5,520.1z"/>
	</defs>
	<use xlink:href="#SVGID_1_"  overflow="visible" fill-rule="evenodd" clip-rule="evenodd" fill="#36464F"/>
	<clipPath id="SVGID_2_">
		<use xlink:href="#SVGID_1_"  overflow="visible"/>
	</clipPath>
</g>
<g>
	<defs>
		<path id="SVGID_3_" d="M233.3,486.3c-32.5,29.4-68.6,76.8-93.7,112.3c-2.1,2.4,37.4,25.7,40.6,24.1c3-1.5,67.4-98.4,73.3-106
			C270.6,494.8,255.5,504.2,233.3,486.3z"/>
	</defs>
	<use xlink:href="#SVGID_3_"  overflow="visible" fill-rule="evenodd" clip-rule="evenodd" fill="#36464F"/>
	<clipPath id="SVGID_4_">
		<use xlink:href="#SVGID_3_"  overflow="visible"/>
	</clipPath>
</g>
<g>
	<defs>
		<path id="SVGID_5_" d="M316,460.4c42.4,36.4,92.8,94,128.4,137.2c2.9,2.9-35.4,28.3-39.4,26.3c-3.6-1.9-96.4-119.4-104.5-128.7
			C276.7,468.4,295.5,480.3,316,460.4z"/>
	</defs>
	<use xlink:href="#SVGID_5_"  overflow="visible" fill-rule="evenodd" clip-rule="evenodd" fill="#36464F"/>
	<clipPath id="SVGID_6_">
		<use xlink:href="#SVGID_5_"  overflow="visible"/>
	</clipPath>
</g>
<g>
	<defs>
		<path id="SVGID_7_" d="M392.5,633c-15.6,35.1-46.3,77.6-70.1,107.7c-1.4,2.4-36.8-26.1-36.5-29.3c0.3-2.9,66.6-81.7,71.4-88.6
			C371.5,602.7,368.2,618,392.5,633z"/>
	</defs>
	<use xlink:href="#SVGID_7_"  overflow="visible" fill-rule="evenodd" clip-rule="evenodd" fill="#36464F"/>
	<clipPath id="SVGID_8_">
		<use xlink:href="#SVGID_7_"  overflow="visible"/>
	</clipPath>
</g>
<path fill-rule="evenodd" clip-rule="evenodd" fill="#3F2E18" d="M411.4,782.4c28.9,26,33.7,48.5,20.9,53.8
	c-10.5-2.3-60.7-43-74.9-60.4C365.5,747.8,409.6,780.7,411.4,782.4z"/>
<path fill-rule="evenodd" clip-rule="evenodd" fill="#6C8FA2" d="M306.8,773.1c8.2,7.1,4.8,10.3-6.4,14.9
	c-8.4,3.5,1.4,32.7-34.8,8.4c-13.7-9.2-44.9,0.9-26.6-18c6-6.3,10.9-7.5,12.9-19.8C254.1,746.1,292.9,761,306.8,773.1z"/>
<path fill-rule="evenodd" clip-rule="evenodd" fill="#82A1AC" d="M212.9,349.1c-11,55.7-54.4,106.6-109.3,110.3
	c-22.1,1.5-73.4-7.5-54.9-33.5c11-15.5,17.3-24.8,32.9-13.2c16.1,11.9,81.2-8.8,95-61C179.3,325.4,192.6,324.3,212.9,349.1z"/>
<path fill-rule="evenodd" clip-rule="evenodd" fill="#546C78" d="M306.1,442.8c-1.4,5.2,25.1,68.7-4.5,70.7
	c-7.3,0.5-13.4,5.9-20.3,9.2c-9.7,4.8-24-34.8-30-42.8c-5.3-7-13.4-17.8-16.3-26.2c-0.5-1.4,10.2-2.5,12.1-2.9
	C253.4,449.4,298.9,431.2,306.1,442.8z"/>
<path fill-rule="evenodd" clip-rule="evenodd" fill="#96B8C4" d="M228.1,287.1c14.4,6.1,54.9,11.3,62.6,18
	c22,18.8,18,82.8,24.5,111.8c9.9,43.7,11.9,49.5-34.9,67.2c-21,7.9-36.8,27.4-38,20.1c-0.9-5.8-13-28-19.4-38.9
	c-17.5-29.9-41.1-60.5-52.3-91.4c-5.1-14,3.9-31,6.9-43.7C178.6,326.6,224.1,289.1,228.1,287.1z"/>
<path fill-rule="evenodd" clip-rule="evenodd" fill="#A68F6A" d="M155.5,322.7c9.9,9.3,27.6,14.4,43.2,11.5
	c4.3-0.8,18.3,20.7,22.1,18.6c2.9-1.7-4.3-26.8-2-29.3c9.9-10.4,14.8-26.6,11-37.4C228.6,283,172.9,320.5,155.5,322.7z"/>
<path fill-rule="evenodd" clip-rule="evenodd" fill="#65838D" d="M179.3,351.3l-3.3,2.2c-5.7,19.5-18.5,34.5-33.1,44.9
	c11.6,19.9-14.9,50.9-48.9,42.2c-21.1-5.4-29.3-46.5-46.4-8.7c-1.2,2.8-2,5.3-2.4,7.7c4.5,15.5,40.7,21,58.4,19.8
	c33.5-2.2,62.7-22,82.8-49.7L179.3,351.3z"/>
<path fill-rule="evenodd" clip-rule="evenodd" fill="#82A1AC" d="M262.6,318.2l31.2,8.8c0,0,6.1,24.5,10.6,32.7
	c14.1,25.8-51.4,7.9-42.4-38.8C262.3,318.9,261.4,320.3,262.6,318.2z"/>
<path fill-rule="evenodd" clip-rule="evenodd" fill="#61818D" d="M190.9,361.3l1.9-19.2c6.6,16.1,10.9,21.3,24.1,32.7
	c7.5,6.5,20.5,10.9,17.6-2.1c-3.5-16,8.5-26.5-12.5-49.1c-5.5-5.9,10.6-5.8,14.2-6.6l13.9,22.1l5,66.1l-20.3,15.5L190.9,361.3z"/>
<path fill-rule="evenodd" clip-rule="evenodd" fill="#EAE553" d="M268.3,296.3c-11.5-1.5-29-8.7-32.2-5.5c2.4,11.3,5,84.7,9.6,108.1
	c0.2,1.1,0.2,2.5,0.4,3.4c5.3,20.3,10.1,28.6,22.5,46c6.8,9.5,14.1,19.7,19.3,30.1c16.3-8,24.3-12.4,39.3-21c2.5-1.5,2.3-0.8,5.2-3
	c-18.8-22.3-20.7-90.1-22.5-90.7C268.9,350.3,265.4,307.4,268.3,296.3z"/>
<path fill-rule="evenodd" clip-rule="evenodd" fill="#EAE553" d="M162.9,366.2c-2.7-14,6.2-24.4,10.7-24.9
	c7.8,9.2,54.7,47.2,67.1,63.2c12.9,16.6,20.9,23.5,31.3,42.2c5.6,10.1,13.5,22.2,18.7,32.6c-11.8,5.8-37.2,22.2-49.3,25.3
	c-6.4-24.6-39.9-70.3-41-71.7C181.9,410,168.4,377,162.9,366.2z"/>
<path fill-rule="evenodd" clip-rule="evenodd" fill="#D4D03D" d="M244,387.8l1.3,4.3c-5.5-11.1,6.9-63.4,47.1-21.7
	c3.4,3.5,13.3,12.7,21.2,22.7c-2.2-16.3-3-29.1-3.7-29.4c-41-13.4-44.5-56.2-41.6-67.3c-11.5-1.5-29-8.7-32.2-5.5
	C238.2,300.7,240.4,357.8,244,387.8L244,387.8z M319.1,423.3c3.1,12.5,7.3,24,13.3,31c-2.9,2.2-2.6,1.6-5.2,3
	c-14.9,8.7-23,13-39.3,21c-1.1-2.2-2.2-4.3-3.4-6.4c2.5-1.5,3.9-3,3.5-4.4c-0.2-0.6-30.4-39.8-35.5-49.7c-2.8-5.4-4.6-9.6-5.7-13
	c-0.2-0.8-0.4-1.6-0.7-2.5c-0.2-0.8-0.2-2.3-0.4-3.4l0-0.2c0.3-19.8,60.5,30,72,25.3C318.2,423.8,318.6,423.6,319.1,423.3z"/>
<path fill-rule="evenodd" clip-rule="evenodd" fill="#D4D03D" d="M179,399.3c-1.3-18.7,7.2-30.5,35-4.2
	c18.7,17.7-26.6,47.8,23.7,60.5c25.4,6.4,19.9,33.1,8.8,8.2c-3.9-8.7-7.5,6.7-23.3,3.3c7.9,13,15.4,27.2,18.1,37.6
	c12.1-3.2,37.5-19.5,49.3-25.3c-1.4-2.8-3-5.8-4.7-8.8l-8.2,3.4l-26.2-51.8l-4.8-10.1c-1.9-2.3-3.9-4.8-6-7.5
	c-12.4-16-59.3-54-67.1-63.2c-4.5,0.6-13.4,10.9-10.7,24.9C165.9,372.2,171.5,385.1,179,399.3z"/>
<path fill-rule="evenodd" clip-rule="evenodd" fill="#B1AEB7" d="M222.6,466c-2-3.2-4.6-7.8-6.5-11c14.7-4.5,28-15.3,41.9-24.9
	c16.7-5.5,39.1-15.5,56.9-28.6c1.1,4.4,1.4,10,2.4,14.4c-16.5,9.9-34.1,19.8-53.2,25.7C250.6,451.5,237.8,460.2,222.6,466z"/>
<path fill-rule="evenodd" clip-rule="evenodd" fill="#B1AEB7" d="M234.7,485.3c-1.5-2.4-3.5-5.8-5-8.2c13.4-4.5,25.9-13.9,38.8-22.3
	c15.2-5.4,35.8-14.8,52.5-26.3c0.7,3.4,0.5,7.7,1.2,11.1c-15.3,8.9-31.7,17.8-49,23.7C260.6,472.1,248.7,479.7,234.7,485.3z"/>
<path fill-rule="evenodd" clip-rule="evenodd" fill="#7F8080" d="M248.3,414c-10.4-42.3-10.8-83.5-12-124.1c1.9-0.7,2.1-0.8,5.2-0.1
	c-4.4,19.5,4.9,90.8,10.5,129.5c10.9,20.7,23.1,42.3,34,63c-1.5,0.7-3,1.5-4.4,2.2c-11.1-21.5-23.5-44-34.7-65.4
	c-24.3-36-51.4-58.4-80.5-72.7c0.9-1.2,0.3-3,1.2-4.2C194.1,360.3,218.2,373.2,248.3,414z"/>
<path fill-rule="evenodd" clip-rule="evenodd" fill="#65838D" d="M219.2,324c1.9-7.5,18.5,6.9,23.3,12.7c2.3,2.8,7.1,5.5,5.9-1.3
	c-4.8-28-3.1-46.3-6.4-49.2c-7.3-4.3-30.6,30.5-23,38.4C219.2,324.4,219.1,324.5,219.2,324z"/>
<path fill-rule="evenodd" clip-rule="evenodd" fill="#65838D" d="M198.6,335.2c-8.4-2.7-0.2,23.7,3.9,31.6c1.9,3.8,2.8,9.9-3.7,4.7
	c-26.8-21.1-41.1-28.6-42.8-33.3c-1.6-9.4,38.1-14.6,43.3-2.8C199,335.5,199.2,335.4,198.6,335.2z"/>
<circle fill-rule="evenodd" clip-rule="evenodd" fill="#E3E3E2" cx="223.4" cy="358" r="4.2"/>
<circle fill-rule="evenodd" clip-rule="evenodd" fill="#E3E3E2" cx="231.3" cy="374.1" r="4.2"/>
<path fill-rule="evenodd" clip-rule="evenodd" fill="#84602F" d="M326.5,445.3c-18.7,20.8-45.3,36.1-72,44.5
	c-7.2,2.3-21.1,4-17.1,13.1c5.1,11.4,11.1,9.4,23.2,6.2c7.7-2,54.6-24,58-27.4c8-8.2,26.6-18.2,10.8-34.8
	C328.8,446.3,326.6,445.3,326.5,445.3z"/>
<path fill-rule="evenodd" clip-rule="evenodd" fill="#202020" d="M273.2,480.3c5.5-2.6,11-5.3,16.5-7.9c1.8-0.9,4.1,0,5.1,2
	c0.7,1.6,1.3,2.7,2.1,4.3c3.2,6.8-20.9,16.4-22.8,12.1c-0.7-1.6-1.7-3.6-2.5-5.2C270.6,483.5,271.3,481.1,273.2,480.3z"/>
<path fill-rule="evenodd" clip-rule="evenodd" fill="#202020" d="M256.8,489.6l3.5-1.4c0.7-0.3,1.4,0.1,1.7,0.7l2.2,5.3
	c0.3,0.7,0,1.4-0.7,1.7l-3.5,1.4c-0.7,0.3-1.4,0-1.7-0.7l-2.2-5.3C255.8,490.6,256.1,489.8,256.8,489.6z"/>
<path fill-rule="evenodd" clip-rule="evenodd" fill="#202020" d="M242.6,494.5l3.5-1.2c0.7-0.2,1.4,0.1,1.7,0.8l1.9,5.4
	c0.2,0.7-0.1,1.4-0.8,1.7l-3.5,1.2c-0.7,0.2-1.4-0.1-1.7-0.8l-1.9-5.4C241.6,495.5,241.9,494.8,242.6,494.5z"/>
<path fill-rule="evenodd" clip-rule="evenodd" fill="#202020" d="M304.6,464.9l-3.3,1.8c-0.6,0.4-0.9,1.2-0.5,1.8l2.7,5
	c0.3,0.6,1.1,0.9,1.8,0.5l3.3-1.8c0.6-0.4,0.9-1.2,0.5-1.8l-2.7-5C306,464.7,305.2,464.5,304.6,464.9z"/>
<path fill-rule="evenodd" clip-rule="evenodd" fill="#5E4320" d="M264.2,491.5l-31.1,10.4c-10.3,1.8-36.7,10-28.9,24.8
	c14.3,27,27.3,82.8,67.3,63.1c42.8-21,17.9-52.4,1.5-87.6C271.4,498.6,266.7,490.6,264.2,491.5z"/>
<path fill-rule="evenodd" clip-rule="evenodd" fill="#202020" d="M291.4,555.2l-81.7-23c-6-12.2-4.9-14.2,8.7-20.9
	c4.8-2.4,45.1-16.1,47.6-13.6C268.7,500.3,295.7,551.6,291.4,555.2z"/>
<g>
	<path fill-rule="evenodd" clip-rule="evenodd" fill="#676767" d="M221.7,482c-3.9,0.2-7.9,0.4-11.8,0.6
		c12.1,24.8,24.1,49.5,36.2,74.3c2.1,0.8,4.2,1.6,6.4,2.4c1.4-0.8,2.9-1.6,4.3-2.5C245.7,529.6,234.6,506.4,221.7,482z"/>
	<path fill-rule="evenodd" clip-rule="evenodd" fill="#676767" d="M205.7,461.1c5.1-2.5,12.1,1.3,15.5,8.5c3.5,7.2,2.2,15-2.9,17.5
		c-5.1,2.5-12-1.3-15.5-8.5C199.3,471.5,200.6,463.6,205.7,461.1L205.7,461.1z M207.7,465.3c-1.9,0.9-1.9,4.7,0,8.5
		c1.8,3.8,4.8,6.1,6.7,5.2c1.9-0.9,1.9-4.7,0-8.5C212.6,466.8,209.6,464.4,207.7,465.3z"/>
	<path fill-rule="evenodd" clip-rule="evenodd" fill="#676767" d="M269.8,577.8c4-2.2,3.2-12.5-1.3-17.8c-5-6-14.4-6.9-19.1-5.9
		c-16,14.9-4.9,37.6,8.6,28.6c0.5-3-14.8-8.2-1.7-13.8C268,563.3,263.4,581.1,269.8,577.8z"/>
</g>
<g>
	<path fill-rule="evenodd" clip-rule="evenodd" fill="#4F4F4F" d="M218.9,482.1c-0.9,9.5,12.8,24.9,5.4,30l4,8.3
		c0.9-0.1,7.1-2,10.8-3.6c-5.6-11.7-11.3-23.1-17.5-34.8L218.9,482.1z"/>
	<path fill-rule="evenodd" clip-rule="evenodd" fill="#4F4F4F" d="M205.5,461.2c10.3,0.4,15.7,10.1,13.6,20
		c-0.3,1.6-0.2,3.4,0.3,5.3c4.3-3,5.2-10.2,1.9-16.9c-3.5-7.2-10.5-11-15.5-8.5L205.5,461.2z"/>
</g>
<g>
	<path fill-rule="evenodd" clip-rule="evenodd" fill="#B0AFAF" d="M241.5,561.9c3-0.7,5.9-1.5,8.9-2.2
		c-12.9-17.1-25.9-34.1-38.8-51.2c-1.7-0.3-3.5-0.6-5.2-0.9c-1,0.8-2,1.7-2.9,2.5C216.1,529.2,228.1,545.2,241.5,561.9z"/>
	<path fill-rule="evenodd" clip-rule="evenodd" fill="#B0AFAF" d="M256.9,575.4c-3.5,2.7-9.4,0.8-13.1-4.1
		c-3.7-4.9-3.9-11.1-0.4-13.8c3.5-2.7,9.4-0.8,13.1,4.1C260.2,566.5,260.4,572.7,256.9,575.4L256.9,575.4z M254.7,572.5
		c1.3-1,0.7-3.9-1.3-6.5c-2-2.6-4.6-3.9-5.9-3c-1.3,1-0.7,3.9,1.3,6.5C250.8,572.1,253.4,573.4,254.7,572.5z"/>
	<path fill-rule="evenodd" clip-rule="evenodd" fill="#B0AFAF" d="M190.5,496.1c-2.7,2.3-0.6,10,3.7,13.4c4.7,3.8,12.1,3.1,15.5,1.7
		c9.9-13.8-1.9-29.4-10.9-20.5c0.1,2.4,12.5,4,3.4,10.3C194,506.9,194.9,492.6,190.5,496.1z"/>
</g>
<g>
	<path fill-rule="evenodd" clip-rule="evenodd" fill="#979797" d="M209.6,519.2c3.8-0.2,7.2-2.4,3.4-6.5c-2.1-2.2-3.3-3.5-3.9-4.7
		l2.5,0.4l8.9,11.8c-1.4,1-3.5,2.3-6.6,4.1c-0.2,0.1-0.4,0.2-0.5,0.4C212.2,522.9,210.9,521.1,209.6,519.2z"/>
	<path fill-rule="evenodd" clip-rule="evenodd" fill="#979797" d="M210.4,509.8c-2.5-2.9-1.9-3.9-0.1-10.4c1.2-4.1-1.8-8.5-4.7-11
		l-0.4-0.3C211.8,489,216.7,499.7,210.4,509.8z"/>
</g>
<polygon fill-rule="evenodd" clip-rule="evenodd" fill="#CA363B" points="245.9,497.6 237.6,467.7 242.1,465 251.2,495.1 
	256.2,496.5 261.6,510.8 245.1,518 240.9,503.3 "/>
<path fill-rule="evenodd" clip-rule="evenodd" fill="#9A383B" d="M239.4,466.6c2.3,6.9,7.3,25.3,9.4,30.4c2.2,5.3-2.1,9.2-7.4,7.7
	c-0.1,0-0.1,0-0.2,0l2.5,9c0.8,0.4,2.5-0.8,7-2.4c3-1.1,6.2-2.7,9.3-4.4l-3.9-10.2l-5-1.4l-9.1-30.1L239.4,466.6z"/>
<path fill-rule="evenodd" clip-rule="evenodd" fill="#84602F" d="M265.3,502.3l-29.5,10.6c-9.7,1.5-34.5,8.9-26.7,23.8
	c14.2,27,23.1,72.5,60.5,54.1c23.3-11.5,26.7-23.7,22-38.8C289.8,546.5,269.5,502.4,265.3,502.3z"/>
<path fill-rule="evenodd" clip-rule="evenodd" fill="#765527" d="M243.2,510.2c16.7,5.8,32.8,26.4,38.2,41.5
	c4.3,12.2-0.3,20-9.4,28.8c-3.5,3.4-10.1,6.8-13.6,2.7c-3.6-4.2-2.8-10.1-11.5-3c-2.1,1.8,1.9,10.5-5.9,9.1
	c-1.2-0.2-2.2-0.3-2.9-0.2c7.7,6.5,17.7,8.4,31.5,1.6c23.3-11.5,26.7-23.7,22-38.8c-1.7-5.5-22.1-49.6-26.3-49.7L243.2,510.2z"/>
<g>
	<path fill-rule="evenodd" clip-rule="evenodd" fill="#393738" d="M234.5,526.9c0.6-0.6,1.9-1.1,2.9-1c0.5,1.3,1.1,2.7,1.6,4
		c-0.9,0.5-1.2,1.8-0.6,3c0.5,1.1,1.5,1.7,2.4,1.6l1.8,4.7c-1.3,1-1.6,3.1-0.8,5.1c1,2.2,3.2,3.4,5,2.6c1.8-0.8,2.4-3.2,1.4-5.4
		c-0.9-2-2.9-3.2-4.6-2.7l-1.9-4.7c0.6-0.6,0.7-1.7,0.2-2.7c-0.4-0.9-1.2-1.5-2-1.6l-1.8-4.5c0.7-0.8,1.9-0.9,3.1-0.9
		c4.7,4.1,8.4,8.7,11.9,13.4c2.3,3.5,6.1,13.6,9.1,20.4c-6.7,1.9-12.5,5.7-20.1,5.6c-3.3-9.1-8.3-19.7-9.8-27.3
		C232.5,532.8,233.1,529.5,234.5,526.9z"/>
	<path fill-rule="evenodd" clip-rule="evenodd" fill="#B0AFAF" d="M231.2,526.3c0.6-0.6,1.9-1.1,2.9-1c0.5,1.3,1.1,2.7,1.6,4
		c-0.9,0.5-1.2,1.8-0.6,3c0.5,1.1,1.5,1.7,2.4,1.6l1.8,4.7c-1.3,1-1.6,3.1-0.8,5.1c1,2.2,3.2,3.4,5,2.6c1.8-0.8,2.4-3.2,1.4-5.4
		c-0.9-2-2.9-3.2-4.6-2.7l-1.9-4.7c0.6-0.6,0.7-1.7,0.2-2.7c-0.4-0.9-1.2-1.5-2-1.6l-1.8-4.5c0.7-0.8,1.9-0.9,3.1-0.9
		c4.6,4.1,8.4,8.7,11.9,13.4c2.3,3.5,6.1,13.6,9.1,20.4c-6.7,1.9-12.5,5.7-20.1,5.6c-3.3-9.1-8.3-19.7-9.8-27.3
		C229.2,532.2,229.8,528.9,231.2,526.3z"/>
	<g>
		<defs>
			<path id="SVGID_9_" d="M249.9,564.1l-8.4,2.9c2,6.7-5.5,13.9,0.8,30.1c0.4,1,9.3,27.5,13.4,16.1c2.5-7-8.9-26.5-0.8-35.7
				c0.8-1.8,1.5-2.4,2-3.2c4.3,3.4,10.4,7.8,16.7,18.1c0.3,0.5,4.9,12.8,8.5,13.1c1,0.1,3-0.6,3.3-2.6c1.6-10.3-12.2-30.5-19.9-36.8
				c-0.8-0.6-3-4-3.5-5.2c-6.4-0.6-10.3,2.9-12.1,3C249.9,564,249.9,564,249.9,564.1z"/>
		</defs>
		<use xlink:href="#SVGID_9_"  overflow="visible" fill-rule="evenodd" clip-rule="evenodd" fill="#DB843D"/>
		<clipPath id="SVGID_10_">
			<use xlink:href="#SVGID_9_"  overflow="visible"/>
		</clipPath>
		<g clip-path="url(#SVGID_10_)">
			<path fill-rule="evenodd" clip-rule="evenodd" fill="#814538" d="M253.8,598.2l-0.4,0.3c-1.5,1.1-4.1,2.3-6.5,2.6
				c-1.7,0.2-3.3,0.1-4.2-0.9l-0.8,0.7c1.1,1.3,3.1,1.5,5.1,1.3c2.6-0.4,5.4-1.6,7-2.8l0.4-0.3L253.8,598.2z"/>
			<path fill-rule="evenodd" clip-rule="evenodd" fill="#814538" d="M254.4,600.3l-0.4,0.3c-1.5,1.1-4.1,2.3-6.5,2.6
				c-1.7,0.2-3.3,0.1-4.2-0.9l-0.8,0.7c1.1,1.3,3.1,1.5,5.1,1.3c2.6-0.4,5.4-1.6,7-2.8l0.4-0.3L254.4,600.3z"/>
			<path fill-rule="evenodd" clip-rule="evenodd" fill="#814538" d="M255.6,602.6l-0.4,0.3c-1.6,1.2-4.6,2.5-7.2,2.9l0,0
				c-1.9,0.3-3.7,0.1-4.7-1l-0.8,0.7c1.2,1.4,3.3,1.7,5.6,1.4v0c2.9-0.4,6-1.8,7.7-3.1l0.4-0.3L255.6,602.6z"/>
			<path fill-rule="evenodd" clip-rule="evenodd" fill="#814538" d="M257.2,605.1l-0.4,0.3c-1.6,1.2-4.6,2.5-7.2,2.9h0
				c-1.9,0.3-3.7,0.1-4.7-1l-0.8,0.7c1.2,1.4,3.3,1.7,5.6,1.4l0,0c2.9-0.4,6-1.8,7.7-3.1l0.4-0.3L257.2,605.1z"/>
			<path fill-rule="evenodd" clip-rule="evenodd" fill="#814538" d="M259.1,608l-0.4,0.3c-1.6,1.2-4.6,2.5-7.2,2.9h0
				c-1.9,0.3-3.7,0.1-4.7-1l-0.8,0.7c1.2,1.4,3.3,1.7,5.6,1.4h0c2.9-0.4,6-1.8,7.7-3.1l0.4-0.3L259.1,608z"/>
			<path fill-rule="evenodd" clip-rule="evenodd" fill="#814538" d="M272.2,592l0.5-0.1c1.8-0.4,4.4-1.6,6.3-3.1
				c1.3-1.1,2.2-2.4,2.1-3.7l1-0.2c0.2,1.7-0.9,3.3-2.4,4.6c-2,1.7-4.8,2.9-6.8,3.4l-0.5,0.1L272.2,592z"/>
			<path fill-rule="evenodd" clip-rule="evenodd" fill="#814538" d="M273.4,593.9l0.5-0.1c1.8-0.4,4.4-1.6,6.3-3.1
				c1.3-1.1,2.2-2.4,2.1-3.7l1-0.2c0.2,1.7-0.9,3.3-2.4,4.6c-2,1.7-4.8,2.9-6.8,3.4l-0.5,0.1L273.4,593.9z"/>
			<path fill-rule="evenodd" clip-rule="evenodd" fill="#814538" d="M274.3,596.3l0.5-0.1c2-0.4,4.9-1.7,7-3.5h0
				c1.5-1.2,2.5-2.7,2.3-4.1l1-0.2c0.2,1.8-0.9,3.6-2.7,5h0c-2.2,1.8-5.3,3.2-7.5,3.7l-0.5,0.1L274.3,596.3z"/>
			<path fill-rule="evenodd" clip-rule="evenodd" fill="#814538" d="M275.2,599.1l0.5-0.1c2-0.4,4.9-1.7,7-3.5v0
				c1.5-1.2,2.5-2.7,2.3-4.1l1-0.2c0.2,1.8-0.9,3.6-2.7,5v0c-2.2,1.8-5.3,3.2-7.5,3.7l-0.5,0.1L275.2,599.1z"/>
			<path fill-rule="evenodd" clip-rule="evenodd" fill="#814538" d="M276.1,602.5l0.5-0.1c2-0.4,4.9-1.7,7-3.5h0
				c1.5-1.2,2.5-2.7,2.3-4.1l1-0.2c0.2,1.8-0.9,3.6-2.7,5l0,0c-2.2,1.8-5.3,3.2-7.5,3.7l-0.5,0.1L276.1,602.5z"/>
		</g>
	</g>
	<path fill-rule="evenodd" clip-rule="evenodd" fill="#393738" d="M239.1,570.4c-3.6-0.4-5.1-5.1-2.4-6.9c7.8-4.4,17.3-5.7,26.6-8.7
		c3.1,0.1,4.9,4.6,3.2,6.5C262.1,565.3,248.5,567.2,239.1,570.4z"/>
</g>
<path fill-rule="evenodd" clip-rule="evenodd" fill="#202020" d="M324.5,448.2l-2.6,2.6c-0.5,0.5-0.5,1.3,0,1.9l4,4.1
	c0.5,0.5,1.3,0.5,1.8,0l2.6-2.6c0.5-0.5,0.5-1.3,0-1.9l-4-4.1C325.8,447.7,325,447.7,324.5,448.2z"/>
<path fill-rule="evenodd" clip-rule="evenodd" fill="#202020" d="M316,456.6l-3.1,2.1c-0.6,0.4-0.8,1.2-0.4,1.8l3.1,4.8
	c0.4,0.6,1.2,0.8,1.8,0.4l3.1-2.1c0.6-0.4,0.8-1.2,0.4-1.8l-3.1-4.8C317.4,456.4,316.6,456.2,316,456.6z"/>
<path fill-rule="evenodd" clip-rule="evenodd" fill="#5E4320" d="M282.8,552.3c-14,8.9-20.8,14.3-36.9,19.1
	c-5.1,1.5-15.1,4.5-19.3,2.5c-5.7,6.5,0.8,11.4,6.8,11.2c17.5-0.7,54.3-18.8,51.5-25.8C284.2,557.5,283.9,554.5,282.8,552.3z"/>
<circle fill-rule="evenodd" clip-rule="evenodd" fill="#E3E3E2" cx="238.3" cy="390" r="3.7"/>
<path fill-rule="evenodd" clip-rule="evenodd" fill="#483322" d="M280.3,176.2l12.4-39.3c15.8,20.5,14.4,42.6,0.9,65.2
	C294.8,192.2,287.8,182.9,280.3,176.2z"/>
<path fill-rule="evenodd" clip-rule="evenodd" fill="#614833" d="M283,191.4l-8.7-34.4c14.8,6.3,28.1,27.6,23.6,53.5
	C295.9,200.9,291.2,194.9,283,191.4z"/>
<path fill-rule="evenodd" clip-rule="evenodd" fill="#614833" d="M249.5,164.6L231,106.9c19,5.9,28.5,9.7,32.5,10.6
	c53.3,12,43.9,142,2.2,160.6L249.5,164.6z"/>
<path fill-rule="evenodd" clip-rule="evenodd" fill="#E3CEAA" d="M294.2,216.2c-1.9,16.9-18.5,21.5-21.9,15.7l-1.6-2.6
	c-0.9-6.8-0.9-8.3-0.4-15.2c0.7-10.4,12.2-15.1,19.3-11.5C294.9,205.3,294.8,210.9,294.2,216.2z"/>
<path fill-rule="evenodd" clip-rule="evenodd" fill="#AE9164" d="M284,214.5c2.2,11.9-8.5,15.6-10.4,12.3l-0.8-1.3
	c-0.4-3.3-0.4-4-0.2-7.4C273,211.8,281.5,209.8,284,214.5z"/>
<path fill-rule="evenodd" clip-rule="evenodd" fill="#614833" d="M166.3,132.5l24.6-35.9c-53.6-16.8-69.7,34.4-75.3,71.1
	c-2.1,14-4.9,56.3,2.3,77.7L166.3,132.5z"/>
<path fill-rule="evenodd" clip-rule="evenodd" fill="#E3CEAA" d="M254.4,324.1c-20.8,6-38.9,11.5-64.3,9.3
	c-34.5-2.9-59.4-14.7-71.9-27.3c-13-17.2-6.2-44.7-1.4-75c8.2-52,25-109.1,30-114.2c13.4-25,90-13.1,122,11.2
	c6.4,4.9,5.4,17.8,5.7,33.8c0.4,19-2.6,50.2-1.2,78.5C275.2,279.3,279,314.7,254.4,324.1z"/>
<path fill-rule="evenodd" clip-rule="evenodd" fill="#C5AB81" d="M172.3,237.4c0,0.5-0.2,17.1-6.3,13.4c-14.9-9-32.7,5.7-28.1,25.6
	c5.4,23.6,60.3,23.9,77.6,19.8c18.6-4.5,43.9-20.4,27.2-41.4c-1-1.3-10.4-3.1-18.2-3.8c-2.2-0.2-3-12.3,0.6-12.4
	c16.8-0.8,28.8,6.9,34,25.1c5.5,19.3,7.9,32.3-3.4,51.6c-10.7,18.4-46.3,20.3-66.1,21.5c-16.5,1-42.4-7.7-54.7-19.1
	c-20.6-19.1-18.3-45.7-4.4-66.7C143.6,231.3,163,234.2,172.3,237.4z"/>
<path fill-rule="evenodd" clip-rule="evenodd" fill="#C5AB81" d="M174.8,298.9c3.3-3.2,7.4-3.5,4.9-9.1c-1.5-3.5-1.3-3.9,11.5-0.8
	c4.3,1,8.8-0.9,13.1-0.4c2,1.2-4.7,4.5-2.3,10.5C203.7,303,174.4,299.3,174.8,298.9z"/>
<path fill-rule="evenodd" clip-rule="evenodd" fill="#D3B788" d="M123.4,195.7c8.2-25.8,22.8-53.5,45.3-50.2
	c7.8,1.2,50.2,8.2,62.5,4.5c18.3-4.5,26.8-22.5,43.2,11.1c-0.1-5.5-0.1-10.6-0.2-15.2l-3.5-15.7c-0.6-0.8-1.2-1.5-2-2.1
	c-6.9-5.2-15.8-9.9-25.7-13.7l-89.7-4.5c-2.9,1.9-5.2,4.2-6.6,7C142.9,120.9,132,155.9,123.4,195.7z"/>
<path fill-rule="evenodd" clip-rule="evenodd" fill="#FFFFFF" d="M172.8,204.4c-1.4,13.7-12.1,17.5-25.8,16
	c-13.7-1.5-21-9.1-19-20.7C131,178.5,172.3,178.6,172.8,204.4z"/>
<path fill-rule="evenodd" clip-rule="evenodd" fill="#614833" d="M134.7,162.3c-2.7,3.2-2.2,7.3-1.2,8.7c17.5-5,33.5-0.6,41.1,0.3
	c0.8,0,2.1-0.6,0.7-3.7C172.6,161.4,142.1,160.2,134.7,162.3z"/>
<path fill-rule="evenodd" clip-rule="evenodd" fill="#614833" d="M255.7,99.7c-12.1-22-45.4-31.6-77.9-28.1
	c-19.3,2-50.4,41.4-42.1,64c21.7-14.6,64.8,5.7,84.7,5.4C233.3,140.9,269.4,124.6,255.7,99.7z"/>
<path fill-rule="evenodd" clip-rule="evenodd" fill="#614833" d="M136.4,95.7l33.8,5.8c-10.8,23.4-47.4,56.8-86.4,42.6
	c-2.3-3.5,4.8-4.4,9.2-6.5C105.7,131.5,130.7,109.8,136.4,95.7z"/>
<path fill-rule="evenodd" clip-rule="evenodd" fill="#3A2618" d="M149.7,118.8c15.1-27,54.2-22.5,72.1,1.1
	C224,123.2,188,102.6,149.7,118.8z"/>
<path fill-rule="evenodd" clip-rule="evenodd" fill="#DACB45" d="M219.3,78.7c16.9,1.1,23.8,21.6,16.3,36
	C234.5,116.5,236.3,93.9,219.3,78.7z"/>
<ellipse transform="matrix(0.1082 -0.9941 0.9941 0.1082 -79.5547 333.9883)" fill-rule="evenodd" clip-rule="evenodd" fill="#010202" cx="146.4" cy="211.3" rx="10.8" ry="11.3"/>
<circle fill-rule="evenodd" clip-rule="evenodd" fill="#FFFFFF" cx="151.4" cy="205.9" r="2.4"/>
<path fill-rule="evenodd" clip-rule="evenodd" fill="#FFFFFF" d="M223.8,204.8c-1.6,13.6,8.1,19.7,21.8,21.2
	c13.7,1.5,22.5-4.3,23-16.1C270.2,188.5,229.8,179.7,223.8,204.8z"/>
<path fill-rule="evenodd" clip-rule="evenodd" fill="#614833" d="M267.1,165.8c2.7,4.1,1.5,8.8,0.1,10.3
	c-19.6-8.4-38.8-5.5-47.8-5.7c-0.9-0.1-2.3-1-0.2-4.4C223.2,159.2,258.8,162.3,267.1,165.8z"/>
<ellipse transform="matrix(0.1082 -0.9941 0.9941 0.1082 2.2785 435.1227)" fill-rule="evenodd" clip-rule="evenodd" fill="#010202" cx="243.7" cy="216.3" rx="10.7" ry="11.3"/>
<circle fill-rule="evenodd" clip-rule="evenodd" fill="#FFFFFF" cx="240.1" cy="210.1" r="2.6"/>
<path fill-rule="evenodd" clip-rule="evenodd" fill="#614833" d="M251.8,108.1l1.3-0.5c12.6-4.9,34.2,2,46.4,14.6
	c5.9,6.1,9.6,23.8,4.6,33.5c-1.1,2.2-27,13.5-29.1,14.7c-1.5-40-16.1-51.5-24.6-43.2C247,130.6,239.1,113,251.8,108.1z"/>
<path fill-rule="evenodd" clip-rule="evenodd" fill="#614833" d="M283.8,125.3l-20.9-13.1c14.1-4.5,35.1-4.6,44.3,11.4
	C301.8,119.6,291.6,122.8,283.8,125.3z"/>
<path fill-rule="evenodd" clip-rule="evenodd" fill="#614833" d="M304.5,154.7l-12.2-17.5c-3.3,12.3-0.8,31.2,13.1,36.9
	C301.8,169.4,302.6,161.5,304.5,154.7z"/>
<path fill-rule="evenodd" clip-rule="evenodd" fill="#614833" d="M300.7,132.9l-2.8-11.4c6.3,3.1,13.1,11,10.4,18.8
	C307.7,137.2,304.2,134.6,300.7,132.9z"/>
<path fill-rule="evenodd" clip-rule="evenodd" fill="#3A2618" d="M294.7,151.4c3.1-16.3-14.6-28-30.1-24.4
	C262.6,127.6,284.5,131.5,294.7,151.4z"/>
<path fill-rule="evenodd" clip-rule="evenodd" fill="#3A2618" d="M279.9,110.8c-7.4-5.4-17.3,0.7-19.1,9.2
	C260.5,121.2,267.6,111.3,279.9,110.8z"/>
<path fill-rule="evenodd" clip-rule="evenodd" fill="#3A2618" d="M296.3,125.1c-2.9-10.1-16.1-11.6-23.8-5.3
	C271.5,120.7,284.9,116.8,296.3,125.1z"/>
<path fill-rule="evenodd" clip-rule="evenodd" fill="#A68F6A" d="M181.1,173.8c0.2-1.4,1.4-2.4,2.8-2.2c1.4,0.2,2.4,1.4,2.2,2.8
	c-0.8,7.3-3.2,29.5-4.4,47.3c-0.7,10.1-1,18.7-0.4,21.9c1.2,3,3.6,4.6,6.5,5.3c4.2,1,9.3,0.2,13.7-1.4c1.3-0.5,2.8,0.2,3.3,1.5
	c0.5,1.3-0.2,2.8-1.5,3.3c-5.3,1.9-11.4,2.8-16.6,1.6c-4.5-1.1-8.3-3.7-10.2-8.5c-0.1-0.2-0.1-0.3-0.2-0.5
	c-0.7-3.5-0.4-12.7,0.3-23.5C177.9,203.5,180.2,181.1,181.1,173.8z"/>
<path fill-rule="evenodd" clip-rule="evenodd" fill="#A68F6A" d="M181.4,275.7c0.1-0.4,5.1,2,10,2.4c4.6,0.4,9.2-1.3,9.2-1
	c-1.5,4.1-5.9,5.9-9.7,5.6C184.2,282,181.3,277.9,181.4,275.7z"/>
<path fill-rule="evenodd" clip-rule="evenodd" fill="#A68F6A" d="M232.9,261.1c-4.7-4.8-8.8-5.6-14.8-3.4
	C221.6,249.4,233.8,252.1,232.9,261.1z"/>
<path fill-rule="evenodd" clip-rule="evenodd" fill="#A68F6A" d="M173.2,312.7c0.1,0.5,9.5-0.6,18.2,0.5c8.1,1.1,15.6,4.5,15.6,4.1
	c-1.2-5.1-8.2-8.6-15-9.4C180,306.5,173.7,310.2,173.2,312.7z"/>
<ellipse transform="matrix(0.1114 -0.9938 0.9938 0.1114 -149.9883 470.4116)" fill-rule="evenodd" clip-rule="evenodd" fill="#A68F6A" cx="188.1" cy="319.1" rx="2.9" ry="3.3"/>
<path fill-rule="evenodd" clip-rule="evenodd" fill="#614833" d="M167,98.4l18.6-25.3c-15.3,1-30.9,10.7-48.7,26.6
	c-2.8,2.5-15.6,9.9-15.7,10.8c-0.9,5.6,11.9,3.3,15.9,1.9C144.1,110.1,159.9,98.8,167,98.4z"/>
<path fill-rule="evenodd" clip-rule="evenodd" fill="#E3CEAA" d="M122.4,228.3c-1.6-16.5,43.1-21.8,49-3.9
	c-0.4,7.1-16.6,5.6-28.2,6.4C135.3,231.4,131,234.7,122.4,228.3z"/>
<path fill-rule="evenodd" clip-rule="evenodd" fill="#E3CEAA" d="M218.9,232.6c-1.6-16.5,43.1-21.8,49-3.9
	c-0.4,7.1-16.6,5.6-28.2,6.4C231.9,235.7,227.5,239.1,218.9,232.6z"/>
<path fill-rule="evenodd" clip-rule="evenodd" fill="#614833" d="M284.4,193c0,0.3-3,6-5.8,19.9c-0.2,1.1-1.2,20.3-2.4,27.1
	c-0.4,2.5-2.2-0.2-2.2-0.1c-2.5,0.6-1.6-49.4,0.6-65.5c0.2-1.8,6.5,16.8,8.6,17.3L284.4,193z"/>
<path fill-rule="evenodd" clip-rule="evenodd" fill="#614833" d="M137.3,91.5l-37.4,37.9c34.9,19.8,111.4,28.6,147.8-24.7
	c-0.2-6.5-10.1-1.2-17.4,0.2C208.5,108.9,157.2,104.2,137.3,91.5z"/>
<path fill-rule="evenodd" clip-rule="evenodd" fill="#A8A53A" d="M295,119.1l-171-15.3c-9.1,2.7-25.4,5.5-31.8,12.4
	c-4.4,4.7-4.1,11.7,15.9,15.3c32.5,5.9,101.1,13.6,128.6,8.8c19-3.3,44.8-5.5,56.1-19.2C293,120.7,294.1,120.4,295,119.1z"/>
<path fill-rule="evenodd" clip-rule="evenodd" fill="#EAE553" d="M119.9,100.7c-18.9,5.8-59.4,19.8-14.5,27.9
	c32.5,5.9,104.8,7.1,132.3,2.3c16.4-2.8,44.3,1,58.8-6.8c1.6-0.5,3-1.2,4.1-1.8c1.6-1,9.4,0.6,10.8-6.6c0.2-2.2-5.7-6.7-5.6-8.9
	c2.1-49.5-36-93.8-92.2-98.2C130.9,2.3,121.6,47.2,119.9,100.7z"/>
<path fill-rule="evenodd" clip-rule="evenodd" fill="#DACB45" d="M162.9,22.3c7.7,5.1,2.9,47.7-0.3,60.2
	c-3.2,12.1-24.7,16.5-26.5,7.8c-1.9-9.4,12.2-36.5,14.5-42.2C154.9,37.5,161,21.1,162.9,22.3z"/>
<path fill-rule="evenodd" clip-rule="evenodd" fill="#DACB45" d="M193.1,8.2c19.7,4.5,41.8-1.6,62.9,27.7
	c28,38.8,17.1,75.8-35.4,69.1c-10.1-1.3-68.8,0.1-16.2,3.8c59.3,4.2,78.3,18.6-5.3,19.2c-32.8,0.3-66.9-3.3-96.9-21.2
	c-16.7,6.7-29.6,15.8,3.3,21.8c32.5,5.9,104.8,7.1,132.3,2.3c16.4-2.8,44.3,1,58.8-6.8c1.6-0.5,3-1.2,4.1-1.8
	c1.6-1,9.4,0.6,10.8-6.6c0.2-2.2-5.7-6.7-5.6-8.9c2.1-49.5-36-93.8-92.2-98.2C206.2,8.2,199.4,8,193.1,8.2z"/>
<path fill-rule="evenodd" clip-rule="evenodd" fill="#DACB45" d="M197.3,23.2c8.4,5.2,11,48.6,9.9,61.4c-1.1,12.3-21.4,16.9-24.6,8
	c-3.5-9.6,5.8-37.2,7-43.1C192,38.7,195.2,22,197.3,23.2z"/>
<path fill-rule="evenodd" clip-rule="evenodd" fill="#DACB45" d="M229.7,25.8c-6.8,6.2,4.3,47.6,9.4,59.5c5,11.5,26.9,12.6,27.3,3.7
	c0.5-9.6-17.6-34.2-20.7-39.6C240,39.5,231.4,24.3,229.7,25.8z"/>
<path fill-rule="evenodd" clip-rule="evenodd" fill="#DACB45" d="M294.6,106.2c0.5-3.8-65.7,0.1-116.1-1c-29-0.6-52.1-5.6-55.8-7.7
	c-5.3-0.6-8.8,2.9-5.4,6.1c12,5.2,50.9,7.6,62.8,7.5C197.1,111,293.7,109.2,294.6,106.2z"/>
<path fill-rule="evenodd" clip-rule="evenodd" fill="#E3CEAA" d="M126.5,195.1c-2.1-19.6,42.4-25.5,48.8-4.1
	C168.2,188.9,140.5,186.8,126.5,195.1z"/>
<path fill-rule="evenodd" clip-rule="evenodd" fill="#E3CEAA" d="M222,198.3c-2.1-19.6,42.4-25.5,48.8-4.1
	C263.8,192.1,236.1,190,222,198.3z"/>
<path fill-rule="evenodd" clip-rule="evenodd" fill="#AE9164" d="M132.5,184.7c8-3.2,18.8-5.1,30.5-2.7c-2.1-3.4-8.4-7-14.1-6.8
	C137.3,176,134.6,180.7,132.5,184.7z"/>
<path fill-rule="evenodd" clip-rule="evenodd" fill="#AE9164" d="M258.3,188.2c-7.6-2.5-17.4-3.3-28-0.4c1.7-3.3,8.1-6.2,12.4-6.1
	C253.3,181.7,256.1,184.6,258.3,188.2z"/>
<path fill-rule="evenodd" clip-rule="evenodd" fill="#3F2E18" d="M158.7,677.7c-35,16.8-46,37.1-35.1,45.8
	c10.7,0.7,70.3-24.2,88.8-36.9C212.5,657.4,160.9,676.7,158.7,677.7z"/>
<path fill-rule="evenodd" clip-rule="evenodd" fill="#6C8FA2" d="M146.7,639.7c-9.8,4.5-7.5,8.5,1.9,16.1c7.1,5.7-10.5,31,31,17.8
	c15.7-5,42.8,13.5,30.6-9.9c-4-7.7-8.4-10.3-6.9-22.6C204.9,628.6,163.5,632.1,146.7,639.7z"/>
<path fill-rule="evenodd" clip-rule="evenodd" fill="#393738" d="M167.7,268.2c5,1.3,25.7,7.8,41.2,3.2c8.5-2.5,13.3-9.5,11.5-13.4
	c-1.1-2.2-15.8,4.9-29.2,6.8c-10.4,1.5-19.9-2.5-22.2-1.3C167.1,264.5,164.7,266.5,167.7,268.2z"/>
<ellipse transform="matrix(0.1115 -0.9938 0.9938 0.1115 -314.9888 496.4736)" fill-rule="evenodd" clip-rule="evenodd" fill="#DB843D" cx="120.2" cy="424.4" rx="21" ry="36.5"/>
<path fill-rule="evenodd" clip-rule="evenodd" fill="#96B8C4" d="M303.5,306.9c14.6,47.6,2.1,104.9-38.8,130.5
	c-16.5,10.3-59.8,24.6-56.3-3.1c2.1-16.5,3.1-26.3,19.9-23.8c17.4,2.6,63.8-29.8,52.8-75.9C272.3,313.1,277.6,296.1,303.5,306.9z"/>
<path fill-rule="evenodd" clip-rule="evenodd" fill="#82A1AC" d="M283.9,314.7l-3,19.5l0.2,0.4c0.8,3.4,1.3,6.7,1.5,10
	c14.6-16.7,26.1,33.8-18.9,85.1c-16.1,18.3-45.4-1.1-47.3-18c-0.4,0.2-0.8,0.5-1.2,0.8l-5.2,16.8l5.1,19.5
	c12.3,5.4,37.8-4,49.6-11.4c40.5-25.3,53.2-81.7,39.3-129L283.9,314.7z"/>
<path fill-rule="evenodd" clip-rule="evenodd" fill="#A68F6A" d="M175.5,260c-6.6,1.5-9.3,4.6-10.6,10.9
	C159.7,263.4,168.3,254.5,175.5,260z"/>
<path fill-rule="evenodd" clip-rule="evenodd" fill="#975D3E" d="M127.7,408.2c17,1.9,29.9,11.4,28.8,21.1
	c-1.1,9.8-15.8,16.1-32.8,14.2c-17-1.9-29.9-11.4-28.8-21.1C96.1,412.7,110.7,406.3,127.7,408.2z"/>
<path fill-rule="evenodd" clip-rule="evenodd" fill="#A45A3D" d="M342.6,189.2c-7-35.3-35.8-35.9-61.7-9.5
	c-14.3,14.6-29.3,87.7,1.1,89.9c27.3,2,37.5-7.4,51.5-30.2C341.9,226,344.3,205.1,342.6,189.2z"/>
<path fill-rule="evenodd" clip-rule="evenodd" fill="#DB843D" d="M349.9,190c-5.6-35.1-30.7-35.3-53.7-8.6
	c-12.7,14.7-26.8,88-0.3,89.8c23.8,1.6,32.8-7.9,45.4-30.9C348.7,226.7,351.1,205.9,349.9,190z"/>
<path fill-rule="evenodd" clip-rule="evenodd" fill="#4D4D4F" d="M7.2,407.1c22.7,18.5,106,25.5,135.8,17.6
	c13.1-3.5,65.1-16.4,76.3-15.8c21.9,1.1,41.5-10.3,40.1,24.8c-0.3,8.8-1.7,2.2-19.2,6.5c-7.8,1.9-39.3,4.1-52.2,7.4
	c-44.8,11.5-139.9,9.9-177.9-17.7C1.9,423.8,3.6,415.5,7.2,407.1z"/>
<path fill-rule="evenodd" clip-rule="evenodd" fill="#393738" d="M220,5.8c50.1,19.2,87.5,83,89.4,214.4c3.1-0.6,23.2-2.6,23.1-6.3
	C349.1,108.8,278.1-2.7,220,5.8z"/>
<path fill-rule="evenodd" clip-rule="evenodd" fill="#E3CEAA" d="M190.9,425.2c1.4,1,0.6,0.6,1.2,1.3c-0.3,2.3,2.1,6.8-0.1,15.6
	c-1.3,5.3-0.7-0.7-0.4,4.9c-0.4,2.8,3.9,8.3,10.3,4.7c4.9-2.8,3,1,4.6-5.3c0.3,3,5.1,12.4,12.4,8.6c5.5-2.9,6.1-4,5.9-7.6
	c1.7-0.4,2.7,9,10.7,4.9c7.8-4,5.9-19.6,4.8-30.2c-0.7-5.9-1.5-11.9-2.6-17.6c-1.4-7.3-26.5-18.3-37.7-3.6c-2.6,3.5-7,6.2-17.7,12.2
	c-3.7,2.1-10,2.8-9.2,10c0.8,6.6,12.6,3.4,16.9,2.3L190.9,425.2z"/>
<path fill-rule="evenodd" clip-rule="evenodd" fill="#E3CEAA" d="M53.1,455c9.8-9.9,28.8-37.6,15.9-46.6c-0.3-8-11.5,3.7-11.6-4.2
	c0-4.8-5.2-6.4-10.3-0.1c-2.5-0.7-7.9-23.6-25.4,9.5c-5.1,9.6-7.3,33.4,4,27.2c-0.7,2.4-4,15.8,12.5,10c5.1-1.8-8.3-0.2,1.3,7.2
	C44.5,461.9,48.5,459.5,53.1,455z"/>
<path fill-rule="evenodd" clip-rule="evenodd" fill="#A6A7AA" d="M53.9,690.2c5.5,5.6-12.8,41.4,23.5,46.3
	c7.9,1.1,42.2,8.2,47.4,0.4c3.3-4.8,11.5-33.1,4.3-33.9C123.2,702.3,53.1,697.6,53.9,690.2z"/>
<path fill-rule="evenodd" clip-rule="evenodd" fill="#DB843D" d="M49.7,687.7c-9.3-74-15-208.8-1.2-234.4
	c16.9-9.4,146-27.7,142.2,6.8c-6,53-21.8,103.2-30.2,155.3C143.1,722.2,159.3,700,49.7,687.7z"/>
<path fill-rule="evenodd" clip-rule="evenodd" fill="#E3A470" d="M47.6,669.9c-6.2-58.3-9.9-140.6-5.5-186.5
	c19.3-13.1,45.5-24.1,63.3-12.2c48.4,32.5,41.4,68.8,34,123.9C132.8,644.7,94.9,685.4,47.6,669.9z"/>
<path fill-rule="evenodd" clip-rule="evenodd" fill="#D0D0D2" d="M63.8,691.8c-7.3-0.8-12.1,42-2.7,42.8c0.4,0,4.4-34.1,3.8-38
	C64.6,695.7,65.4,692,63.8,691.8z"/>
<path fill-rule="evenodd" clip-rule="evenodd" fill="#D0D0D2" d="M79.3,693.6c-8.2-0.9-13.5,46.8-3,47.7c0.4,0,4.9-38,4.2-42.3
	C80.2,697.9,81.1,693.8,79.3,693.6z"/>
<path fill-rule="evenodd" clip-rule="evenodd" fill="#D0D0D2" d="M96,697.6c-8.2-0.9-13.5,46.8-3,47.7c0.4,0,4.9-38,4.2-42.3
	C96.9,701.9,97.9,697.9,96,697.6z"/>
<path fill-rule="evenodd" clip-rule="evenodd" fill="#D0D0D2" d="M112.2,697.8c8.2,0.9,2.8,48.6-7.6,47.2
	c-0.4-0.1,3.6-38.1,5.3-42.2C110.3,701.8,110.3,697.6,112.2,697.8z"/>
<path fill-rule="evenodd" clip-rule="evenodd" fill="#D0D0D2" d="M131.2,698.8c7.6,1.1,1.1,45.4-8.6,43.7
	c-0.4-0.1,4.5-35.4,6.3-39.1C129.3,702.5,129.5,698.6,131.2,698.8z"/>
<path fill-rule="evenodd" clip-rule="evenodd" fill="#BD723F" d="M127.2,565.8c-0.1-3,0.1-4.8,0-7.8c11.8,2.5,25.4,2.2,36.4-2.8
	c0.7-0.3,0.5,0.3,1-0.5c-0.3,2.3-0.4,5.4-0.7,7.7C155.8,568.3,139.4,568.3,127.2,565.8z"/>
<path fill-rule="evenodd" clip-rule="evenodd" fill="#BD723F" d="M125.6,580c-0.1-3,0.1-4.8,0-7.8c11.8,2.5,25.4,2.2,36.4-2.8
	c0.7-0.3,0.5,0.3,1-0.5c-0.3,2.3-0.4,5.4-0.7,7.7C154.2,582.5,137.8,582.5,125.6,580z"/>
<path fill-rule="evenodd" clip-rule="evenodd" fill="#BD723F" d="M124.6,593.4c-0.1-3,0.1-4.8,0-7.8c11.8,2.5,25.4,2.2,36.4-2.8
	c0.7-0.3,0.5,0.3,1-0.5c-0.3,2.3-0.4,5.4-0.7,7.7C153.2,595.9,136.8,595.9,124.6,593.4z"/>
<path fill-rule="evenodd" clip-rule="evenodd" fill="#BD723F" d="M122.2,606.4c-0.1-3,0.1-4.8,0-7.8c11.8,2.5,25.4,2.2,36.4-2.8
	c0.7-0.3,0.5,0.3,1-0.5c-0.3,2.3-0.4,5.4-0.7,7.7C150.9,608.9,134.5,608.9,122.2,606.4z"/>
<g>
	<path fill-rule="evenodd" clip-rule="evenodd" fill="#BD723F" d="M65,563.4c0.3-3,0.3-4.8,0.6-7.7c-8.1,1.1-16.9,0.8-25.1-1.3
		c0.1,2.7,0.2,5.5,0.3,8.3C48.4,564.3,57.4,564.4,65,563.4z"/>
	<path fill-rule="evenodd" clip-rule="evenodd" fill="#BD723F" d="M65.5,577.7c0.3-3,0.3-4.8,0.6-7.8c-8.1,1.1-16.9,0.8-25.1-1.3
		c0.1,2.8,0.3,5.5,0.4,8.3C49.1,578.6,58,578.7,65.5,577.7z"/>
	<path fill-rule="evenodd" clip-rule="evenodd" fill="#BD723F" d="M65.5,591.1c0.3-3,0.3-4.8,0.6-7.7c-7.8,1-16.4,0.8-24.3-1.2
		c0.1,2.8,0.3,5.5,0.5,8.3C49.6,592,58.2,592,65.5,591.1z"/>
	<path fill-rule="evenodd" clip-rule="evenodd" fill="#BD723F" d="M66.8,604.3c0.3-3,0.3-4.8,0.6-7.7c-8,1.1-16.8,0.8-25-1.3
		c0.2,2.8,0.3,5.5,0.5,8.3C50.5,605.1,59.4,605.2,66.8,604.3z"/>
</g>
</svg>
